<?xml version="1.0" encoding="utf-8"?>
<!-- Generator: Adobe Illustrator 27.0.0, SVG Export Plug-In . SVG Version: 6.00 Build 0)  -->
<svg version="1.1" id="Capa_1" xmlns="http://www.w3.org/2000/svg" xmlns:xlink="http://www.w3.org/1999/xlink" x="0px" y="0px"
	 viewBox="0 0 841.9 306.9" style="enable-background:new 0 0 841.9 306.9;" xml:space="preserve">
<style type="text/css">
	.st0{fill:#FFFFFF;}
	.st1{fill:url(#SVGID_1_);}
</style>
<g>
	<path class="st0" d="M342.7,178l-26.3-99.4h20.7l19.2,74.3h4l19.4-74.3h25.9l19.4,74.3h4L448,78.7h20.7L442.5,178h-29.4l-18.4-72.1
		h-3.9L372.2,178H342.7z"/>
	<path class="st0" d="M478,149.2c0-18.8,12.4-32,40.1-32h25.3v-2.6c0-12.8-8.1-20.9-20.9-20.9c-12.8,0-20.1,7.1-21.3,14.2h-19.8
		c1.4-15.8,15.4-31.2,41.1-31.2c25.1,0,40.7,14.8,40.7,37.9V178H546l-2-10.9h-1c-3.8,5.5-14.4,12.8-29.6,12.8
		C491.9,180,478,166.8,478,149.2z M543.4,136.4V133h-23.9c-15.4,0-21.5,6.7-21.5,15.4s6.1,14.6,17.6,14.6
		C533,163,543.4,152.7,543.4,136.4z"/>
	<path class="st0" d="M653.4,78.7h21.1l-43.8,122.9c-3.8,10.7-9.3,16-22.5,16h-21.7v-18.4h19.4c3.8,0,5.7-2.4,6.7-5.3l3.2-8.9
		L575,78.7h21.1l28,75.3h3.9L653.4,78.7z"/>
	<path class="st0" d="M688.8,178V78.7h17l2,9.1h1c3.6-5.1,8.3-9.1,18.6-9.1h17.6v18.6h-15.8c-13.2,0-20.5,7.3-20.5,20.5V178H688.8z"
		/>
	<path class="st0" d="M754,149.2c0-18.8,12.4-32,40.1-32h25.3v-2.6c0-12.8-8.1-20.9-20.9-20.9c-12.8,0-20.1,7.1-21.3,14.2h-19.8
		c1.4-15.8,15.4-31.2,41.1-31.2c25.1,0,40.7,14.8,40.7,37.9V178h-17.2l-2-10.9h-1c-3.8,5.5-14.4,12.8-29.6,12.8
		C767.8,180,754,166.8,754,149.2z M819.4,136.4V133h-23.9c-15.4,0-21.5,6.7-21.5,15.4S780,163,791.5,163
		C808.9,163,819.4,152.7,819.4,136.4z"/>
</g>
<g>
	<linearGradient id="SVGID_1_" gradientUnits="userSpaceOnUse" x1="2.0935" y1="90.2486" x2="286.0968" y2="90.2486">
		<stop  offset="0" style="stop-color:#0066FF"/>
		<stop  offset="0.1354" style="stop-color:#046CF8"/>
		<stop  offset="0.3366" style="stop-color:#107CE4"/>
		<stop  offset="0.5785" style="stop-color:#2498C3"/>
		<stop  offset="0.85" style="stop-color:#3FBD95"/>
		<stop  offset="1" style="stop-color:#50D479"/>
	</linearGradient>
	<path class="st1" d="M270.9,178c-6.3,0-12.2-3.9-14.3-10.2L220.2,63.7l-36.4,104.1c-2.1,6.1-7.9,10.2-14.3,10.2
		c-6.5,0-12.2-4.1-14.3-10.2L118.7,63.7L82.4,167.8C80.2,173.9,74.5,178,68,178s-12.2-4.1-14.3-10.2L2.9,22.7
		C0.2,14.8,4.4,6.1,12.3,3.3c7.9-2.8,16.6,1.4,19.4,9.3L68,116.8l36.4-104.1c2.1-6.1,7.9-10.2,14.3-10.2c6.5,0,12.2,4.1,14.3,10.2
		l36.4,104.1l36.4-104.1c2.1-6.1,7.9-10.2,14.3-10.2c6.5,0,12.2,4.1,14.3,10.2l50.7,145.2c2.8,7.9-1.4,16.6-9.3,19.4
		C274.3,177.8,272.6,178,270.9,178z"/>
</g>
<g>
	<path class="st0" d="M494.9,258.7H478v-10h44v10h-16.8v46h-10.4V258.7z"/>
	<path class="st0" d="M557.2,292.7c-0.9,3.2-5.9,12.8-18.8,12.8c-12,0-20.8-8.8-20.8-21.2c0-12.4,8.8-21.2,20.8-21.2
		c11.2,0,20,8.8,20,20.4c0,1.2-0.2,2.2-0.2,2.9l-0.2,1.1h-30.4c0.9,5.7,5.1,9.6,10.8,9.6c4.7,0,7.6-2.7,8.4-4.4H557.2z M548.4,280.7
		c-0.9-5.2-4.3-9.2-10-9.2c-6.1,0-9.6,4-10.8,9.2H548.4z"/>
	<path class="st0" d="M564.4,248.7h10v56h-10V248.7z"/>
	<path class="st0" d="M620,292.7c-0.9,3.2-5.9,12.8-18.8,12.8c-12,0-20.8-8.8-20.8-21.2c0-12.4,8.8-21.2,20.8-21.2
		c11.2,0,20,8.8,20,20.4c0,1.2-0.2,2.2-0.2,2.9l-0.2,1.1h-30.4c0.9,5.7,5.1,9.6,10.8,9.6c4.7,0,7.6-2.7,8.4-4.4H620z M611.2,280.7
		c-0.9-5.2-4.3-9.2-10-9.2c-6.1,0-9.6,4-10.8,9.2H611.2z"/>
	<path class="st0" d="M630.4,273.5h-6.8v-9.6h6.8v-6c0-6.1,3.9-10,10-10h8.8v8.8h-6c-1.6,0-2.8,1.2-2.8,2.8v4.4h8.8v9.6h-8.8v31.2
		h-10V273.5z"/>
	<path class="st0" d="M692.4,284.3c0,12.4-8.8,21.2-20.8,21.2c-12,0-20.8-8.8-20.8-21.2c0-12.4,8.8-21.2,20.8-21.2
		C683.5,263.1,692.4,271.9,692.4,284.3z M682.3,284.3c0-7.2-4.8-12-10.8-12s-10.8,4.8-10.8,12c0,7.2,4.8,12,10.8,12
		S682.3,291.5,682.3,284.3z"/>
	<path class="st0" d="M698.3,263.9h9.2l0.8,4h0.4c0.7-0.9,1.7-1.7,2.7-2.4c1.8-1.2,4.6-2.4,8.5-2.4c9.2,0,16,6.8,16,17.2v24.4h-10
		v-23.6c0-5.2-3.6-8.8-8.8-8.8c-5.2,0-8.8,3.6-8.8,8.8v23.6h-10V263.9z"/>
	<path class="st0" d="M799.7,289.5c-1.3,6.4-6.3,16-19.2,16c-12,0-20.8-8.8-20.8-21.2c0-12.4,8.8-21.2,20.8-21.2
		c12.9,0,17.9,9.6,19.2,15.6h-10c-0.9-2.3-3.2-6.4-9.2-6.4s-10.8,4.8-10.8,12c0,7.2,4.8,12,10.8,12s8.3-4,9.2-6.8H799.7z"/>
	<path class="st0" d="M829.9,300.7h-0.4c-0.7,0.9-1.7,1.7-2.8,2.4c-1.9,1.2-4.7,2.4-8.8,2.4c-9.3,0-14.8-5.7-14.8-12.4
		c0-8,5.6-13.6,16.8-13.6h9.2v-0.8c0-4.5-2.7-7.6-7.2-7.6c-4.5,0-6.8,2.9-7.2,5.2h-10c0.9-6.7,6.3-13.2,17.2-13.2
		c10.4,0,17.2,6.9,17.2,15.6v26h-8.4L829.9,300.7z M829.1,287.1h-8.4c-5.2,0-7.6,2-7.6,5.2c0,3.2,2.3,5.2,6.4,5.2
		c6.1,0,9.6-3.5,9.6-9.2V287.1z"/>
	<path class="st0" d="M743.6,263.9h10v40.8h-10V263.9z"/>
	<g>
		<circle class="st0" cx="748.6" cy="252.1" r="5.9"/>
	</g>
	<polygon class="st0" points="675.1,246.7 685.5,246.7 675.9,258.3 667.5,258.3 	"/>
</g>
</svg>
