<svg width="117" height="29" viewBox="0 0 117 29" fill="none" xmlns="http://www.w3.org/2000/svg">
<g clip-path="url(#clip0_266_22)">
<path d="M62.552 29H69.9023V20.499C69.9023 17.7688 69.5643 15.0761 69.377 12.346L69.4521 12.269L75.1535 29H82.5038V0H75.1535V7.38415C75.1535 10.7306 75.716 14.0383 76.0154 17.3847L75.9404 17.4603L69.8272 0H62.552V29Z" fill="white"/>
<path d="M85.22 29H99.4332V22.1538H92.8698V17.73H98.7572V10.8845H92.8698V6.84616H99.4332V0H85.22V29Z" fill="white"/>
<path d="M112.613 29V7.07703H117V0H100.762V7.07703H104.962V29H112.613Z" fill="white"/>
<path d="M62.552 29H69.9023V20.499C69.9023 17.7688 69.5643 15.0761 69.377 12.346L69.4521 12.269L75.1535 29H82.5038V0H75.1535V7.38415C75.1535 10.7306 75.716 14.0383 76.0154 17.3847L75.9404 17.4603L69.8272 0H62.552V29Z" fill="#706F6F"/>
<path d="M85.22 29H99.4332V22.1538H92.8698V17.73H98.7572V10.8845H92.8698V6.84616H99.4332V0H85.22V29Z" fill="#706F6F"/>
<path d="M112.613 29V7.07703H117V0H100.762V7.07703H104.962V29H112.613Z" fill="#706F6F"/>
<path d="M27.728 29L25.1814 0H16.4271L14.7181 10.038C14.4045 11.8454 14.23 13.6147 14.0205 15.4228H13.9502L11.9282 0H3.06977L0 29H7.63825L8.23111 17.1927C8.3359 15.0387 8.30074 12.9235 8.3359 10.7694H8.40553L10.8818 29H16.6711L18.6944 17.1151C19.0432 14.9999 19.2873 12.884 19.601 10.7688H19.6706L20.3331 28.9993H27.728V29Z" fill="#00A5A2"/>
<path d="M28.3823 29H41.6017V22.1538H35.498V17.73H40.9737V10.8845H35.498V6.84616H41.6017V0H28.3823V29Z" fill="#00A5A2"/>
<path fill-rule="evenodd" clip-rule="evenodd" d="M44.2179 29H50.4264C54.7508 29 62.3898 27.7694 62.3898 14.3842C62.3898 5.61559 58.0295 0 49.9383 0H44.2179V29ZM51.3329 7.23093C54.5764 7.23093 55.1348 11.6159 55.1348 14.769C55.1348 17.4998 54.5764 21.9618 51.3329 21.9999V7.23093Z" fill="#00A5A2"/>
<path d="M54.2533 15.3804C54.2533 10.3916 58.1965 6.34766 63.0617 6.34766C67.9256 6.34766 71.8695 10.3916 71.8695 15.3804C71.8695 20.37 67.9256 24.4132 63.0617 24.4132C58.1965 24.4132 54.2533 20.37 54.2533 15.3804Z" fill="white"/>
</g>
<defs>
<clipPath id="clip0_266_22">
<rect width="117" height="29" fill="white"/>
</clipPath>
</defs>
</svg>
