<?xml version="1.0" encoding="utf-8"?>
<!-- Generator: Adobe Illustrator 27.4.1, SVG Export Plug-In . SVG Version: 6.00 Build 0)  -->
<svg version="1.1" xmlns="http://www.w3.org/2000/svg" xmlns:xlink="http://www.w3.org/1999/xlink" x="0px" y="0px"
	 viewBox="0 0 1200 372.09" style="enable-background:new 0 0 1200 372.09;" xml:space="preserve">
<style type="text/css">
	.st0{display:none;}
	.st1{display:inline;fill:#C7B299;}
	.st2{display:none;fill:#333333;}
	.st3{fill:#FFFFFF;}
</style>
<g id="HIntergrund" class="st0">
	<rect x="-579.28" y="-1807.36" class="st1" width="4969.18" height="2676.59"/>
</g>
<g id="Layer_1">
	<path d="M28.74,299.88h23.59v15.45c0,10.66-1.44,16.76-5.27,21.67c-4.43,5.75-11.02,8.62-20.12,8.62c-9.7,0-16.65-3.11-20.84-9.46
		c-3.23-4.67-4.55-11.02-4.55-21.43v-25.75c0-11.5,1.56-17.96,5.51-22.87c4.31-5.39,10.66-8.02,19.16-8.02
		c15.09,0,23.23,7.78,23.71,22.51l-8.62,0.36c-0.6-9.82-5.75-15.09-14.85-15.09c-11.14,0-15.57,6.83-15.57,23.47v25.03
		c0,16.77,4.55,23.47,15.93,23.47c11.02,0,16.29-6.71,16.29-20.72v-9.7H28.74V299.88z M76.76,321.2c0,11.5,4.19,16.88,12.81,16.88
		c6.47,0,9.7-2.63,11.14-8.98l7.78,1.68c-1.8,10.3-7.78,14.85-19.28,14.85c-14.73,0-21.44-8.14-21.44-26.23v-9.58
		c0-18.32,6.47-26.47,20.84-26.47c14.49,0,20.84,8.02,20.84,26.47v6.35H76.76V321.2z M100.83,309.22v-2.52
		c0-10.66-3.83-15.81-11.98-15.81c-8.14,0-12.09,5.15-12.09,15.81v2.52H100.83z M125.02,284.44h7.07l0.96,5.27
		c2.75-4.43,6.47-6.35,12.09-6.35c3.59,0,6.35,0.84,9.94,3.11l-3.95,7.54c-2.63-2.03-4.55-2.75-7.07-2.75
		c-7.07,0-10.06,7.07-10.06,23.95v29.34h-8.98V284.44z M166.57,284.44h6.95l0.6,5.87c3.59-5.15,7.3-7.06,13.77-7.06
		c7.18,0,12.21,2.75,14.73,8.38c3.23-5.87,7.78-8.38,14.97-8.38c8.14,0,13.65,3.59,15.93,10.42c1.08,3.23,1.56,7.3,1.56,14.13v36.76
		h-8.98v-35.81c0-12.81-2.75-17.72-10.06-17.72c-7.42,0-10.66,5.99-10.66,20v33.53h-8.98v-35.81c0-12.81-2.75-17.72-9.94-17.72
		c-7.78,0-10.9,5.87-10.9,20.6v32.93h-8.98V284.44z M280.22,305.03c0-10.42-2.87-14.25-10.78-14.25c-5.75,0-8.86,2.52-10.9,8.98
		l-7.66-2.27c2.51-9.58,8.62-14.13,18.8-14.13c8.26,0,14.01,2.75,17,7.9c1.8,3.23,2.51,7.54,2.51,14.73v38.56h-7.18l-0.6-4.19
		c-3.35,3.95-6.95,5.27-14.61,5.27c-13.41,0-18.44-4.79-18.44-17.84c0-13.53,5.27-18.44,20-18.44h11.86V305.03z M269.92,316.29
		c-9.34,0-12.81,3.11-12.81,11.5c0,7.66,2.87,10.3,11.62,10.3c8.86,0,11.5-2.63,11.5-11.74v-10.06H269.92z M306.57,284.44h6.95
		l0.6,5.87c3.59-5.15,7.66-7.06,14.61-7.06c8.62,0,14.37,3.59,16.88,10.42c1.08,3.11,1.56,7.42,1.56,14.13v36.76h-8.98v-35.81
		c0-12.81-2.99-17.72-10.78-17.72c-8.5,0-11.86,5.75-11.86,20.6v32.93h-8.98V284.44z M357.82,284.44h8.98l14.01,49.58l12.69-49.58
		h9.1l-19.64,70.29c-4.31,14.49-7.66,17.24-21.44,17.36v-7.66c7.78,0,9.58-1.44,12.33-10.66l2.39-8.98L357.82,284.44z
		 M172.28,154.46V95.05H83.17V71.29h112.87v83.17c0,13.12-10.64,23.76-23.76,23.76H23.76C10.64,178.22,0,167.58,0,154.46V35.64
		c0-13.12,10.64-23.76,23.76-23.76h172.28v23.76H23.76v118.81H172.28z M243.56,59.41h124.76c13.12,0,23.76,10.64,23.76,23.76v47.53
		H243.56v23.76h148.51v0c0,13.12-10.64,23.76-23.76,23.76H243.56c-13.12,0-23.76-10.64-23.76-23.76V83.17
		C219.8,70.04,230.44,59.41,243.56,59.41z M368.32,83.17H243.56v23.76h124.75V83.17z M831.68,59.41h124.76
		c13.12,0,23.76,10.64,23.76,23.76v47.53H831.68v23.76H980.2v0c0,13.12-10.64,23.76-23.76,23.76H831.68
		c-13.12,0-23.76-10.64-23.76-23.76V83.17C807.92,70.04,818.56,59.41,831.68,59.41z M956.44,83.17H831.68v23.76h124.75V83.17z
		 M564.36,59.41v95.05H439.6V59.41h-23.76v95.05c0,13.12,10.64,23.76,23.76,23.76h124.75c13.12,0,23.76-10.64,23.76-23.76V59.41
		H564.36z M784.16,11.88v142.57c0,13.12-10.64,23.76-23.76,23.76H635.64c-13.12,0-23.76-10.64-23.76-23.76V83.17
		c0-13.12,10.64-23.76,23.76-23.76H760.4V11.88H784.16z M760.4,83.17H635.64v71.29H760.4V83.17z M1003.96,83.17v95.05h23.76V83.17
		l100.99,0v17.82h23.76V83.17c0-13.12-10.64-23.76-23.76-23.76l-100.99,0C1014.6,59.41,1003.96,70.04,1003.96,83.17z M1200,23.76
		c0,13.12-10.64,23.76-23.76,23.76c-13.12,0-23.76-10.64-23.76-23.76S1163.11,0,1176.24,0C1189.36,0,1200,10.64,1200,23.76z
		 M1173.68,26.04h2.25l4.01,8.5h5.09l-4.61-8.86c2.75-0.78,3.86-2.54,3.86-6.23c0-2.22-0.48-3.65-1.56-4.73
		c-1.14-1.14-2.66-1.56-5.54-1.56h-8.11v21.38h4.61V26.04z M1173.59,22.51v-5.69h3.14c2.19,0,2.99,0.78,2.99,2.84
		c0,2.07-0.81,2.84-2.93,2.84H1173.59z"/>
</g>
</svg>
