<svg width="161" height="47" viewBox="0 0 161 47" fill="none" xmlns="http://www.w3.org/2000/svg">
<path d="M48.0236 18V0.336032H50.3472V18H48.0236ZM53.7774 18V5.2203H55.935V7.70985L55.5793 7.49646C55.8954 6.69032 56.4013 6.06596 57.0968 5.62337C57.8081 5.16497 58.6379 4.93578 59.5863 4.93578C60.5031 4.93578 61.3171 5.14126 62.0284 5.55224C62.7555 5.96321 63.3246 6.53225 63.7356 7.25936C64.1623 7.98647 64.3757 8.80841 64.3757 9.7252V18H62.147V10.4365C62.147 9.7252 62.0205 9.12455 61.7676 8.63454C61.5147 8.14453 61.1512 7.76517 60.677 7.49646C60.2186 7.21194 59.6891 7.06968 59.0884 7.06968C58.4877 7.06968 57.9503 7.21194 57.4761 7.49646C57.0177 7.76517 56.6542 8.15244 56.3855 8.65825C56.1167 9.14826 55.9824 9.74101 55.9824 10.4365V18H53.7774ZM72.4864 18.1423C71.2377 18.1423 70.2735 17.7866 69.5938 17.0753C68.9299 16.364 68.598 15.3603 68.598 14.0641V7.33049H66.2744V5.2203H66.7486C67.3176 5.2203 67.7681 5.04642 68.1001 4.69868C68.432 4.35093 68.598 3.89254 68.598 3.3235V2.28025H70.803V5.2203H73.6719V7.33049H70.803V13.993C70.803 14.4198 70.8662 14.7912 70.9927 15.1074C71.1349 15.4235 71.3641 15.6764 71.6803 15.8661C71.9964 16.04 72.4153 16.1269 72.9369 16.1269C73.0475 16.1269 73.1819 16.119 73.34 16.1032C73.5138 16.0874 73.6719 16.0716 73.8142 16.0558V18C73.6087 18.0474 73.3795 18.079 73.1266 18.0948C72.8737 18.1265 72.6603 18.1423 72.4864 18.1423ZM82.1799 18.2845C80.947 18.2845 79.8326 18 78.8368 17.431C77.841 16.8461 77.0507 16.0479 76.4658 15.0362C75.881 14.0246 75.5885 12.8786 75.5885 11.5983C75.5885 10.318 75.8731 9.17987 76.4421 8.18405C77.0269 7.18823 77.8173 6.3979 78.8131 5.81305C79.8089 5.2282 80.9312 4.93578 82.1799 4.93578C83.4128 4.93578 84.5272 5.2282 85.523 5.81305C86.5189 6.38209 87.3013 7.16452 87.8703 8.16034C88.4552 9.15616 88.7476 10.3021 88.7476 11.5983C88.7476 12.8944 88.4473 14.0483 87.8466 15.06C87.246 16.0558 86.4477 16.8461 85.4519 17.431C84.4719 18 83.3812 18.2845 82.1799 18.2845ZM82.1799 16.1506C82.9703 16.1506 83.6816 15.953 84.3138 15.5579C84.9619 15.1627 85.4677 14.6174 85.8313 13.9219C86.2106 13.2264 86.4003 12.4519 86.4003 11.5983C86.4003 10.7289 86.2106 9.9623 85.8313 9.29842C85.4677 8.61873 84.9619 8.08131 84.3138 7.68614C83.6816 7.27517 82.9703 7.06968 82.1799 7.06968C81.3738 7.06968 80.6467 7.27517 79.9986 7.68614C79.3663 8.08131 78.8605 8.61873 78.4812 9.29842C78.1018 9.9623 77.9121 10.7289 77.9121 11.5983C77.9121 12.4519 78.1018 13.2264 78.4812 13.9219C78.8605 14.6174 79.3663 15.1627 79.9986 15.5579C80.6467 15.953 81.3738 16.1506 82.1799 16.1506ZM95.5085 18V0.336032H101.744C102.914 0.336032 103.941 0.557326 104.827 0.999914C105.712 1.4425 106.399 2.07477 106.889 2.89672C107.395 3.71866 107.648 4.68287 107.648 5.78934C107.648 6.89581 107.395 7.86001 106.889 8.68196C106.399 9.4881 105.712 10.1204 104.827 10.5788C103.957 11.0213 102.93 11.2426 101.744 11.2426H97.8321V18H95.5085ZM97.8321 9.10874H101.815C102.527 9.10874 103.143 8.97438 103.665 8.70567C104.186 8.43696 104.589 8.04969 104.874 7.54388C105.158 7.03807 105.301 6.45322 105.301 5.78934C105.301 5.10965 105.158 4.5248 104.874 4.0348C104.589 3.52898 104.186 3.14172 103.665 2.87301C103.143 2.60429 102.527 2.46993 101.815 2.46993H97.8321V9.10874ZM110.292 18V0.0515127H112.497V18H110.292ZM119.428 18.2845C118.59 18.2845 117.847 18.1344 117.199 17.834C116.567 17.5179 116.069 17.0911 115.706 16.5537C115.342 16.0005 115.16 15.3682 115.16 14.6569C115.16 13.9772 115.302 13.3686 115.587 12.8312C115.887 12.278 116.346 11.8117 116.962 11.4323C117.594 11.053 118.385 10.7842 119.333 10.6262L124.075 9.84375V11.6931L119.831 12.4044C119.009 12.5467 118.408 12.8075 118.029 13.1869C117.666 13.5662 117.484 14.0325 117.484 14.5858C117.484 15.1074 117.689 15.5421 118.1 15.8898C118.527 16.2376 119.057 16.4114 119.689 16.4114C120.495 16.4114 121.19 16.2455 121.775 15.9135C122.376 15.5658 122.842 15.0995 123.174 14.5146C123.522 13.9298 123.696 13.2817 123.696 12.5704V9.32213C123.696 8.62664 123.435 8.0655 122.913 7.63872C122.408 7.19613 121.736 6.97484 120.898 6.97484C120.171 6.97484 119.523 7.16452 118.954 7.54388C118.401 7.90743 117.99 8.39744 117.721 9.0139L115.8 8.01808C116.037 7.43323 116.417 6.91161 116.938 6.45322C117.46 5.97902 118.069 5.60756 118.764 5.33885C119.46 5.07013 120.187 4.93578 120.945 4.93578C121.925 4.93578 122.787 5.12546 123.53 5.50482C124.273 5.86837 124.85 6.38209 125.261 7.04597C125.687 7.69404 125.901 8.45276 125.901 9.32213V18H123.743V15.5816L124.146 15.7238C123.878 16.2297 123.514 16.6722 123.056 17.0516C122.597 17.431 122.06 17.7313 121.443 17.9526C120.827 18.1739 120.155 18.2845 119.428 18.2845ZM135.01 18.2845C133.761 18.2845 132.647 17.9921 131.667 17.4072C130.703 16.8224 129.944 16.0242 129.391 15.0125C128.838 14.0009 128.561 12.8628 128.561 11.5983C128.561 10.318 128.838 9.17987 129.391 8.18405C129.944 7.18823 130.703 6.3979 131.667 5.81305C132.647 5.2282 133.761 4.93578 135.01 4.93578C135.848 4.93578 136.63 5.08594 137.357 5.38627C138.085 5.6866 138.725 6.08967 139.278 6.59548C139.831 7.10129 140.234 7.69404 140.487 8.37373L138.519 9.32213C138.219 8.65825 137.76 8.12082 137.144 7.70985C136.528 7.28307 135.816 7.06968 135.01 7.06968C134.236 7.06968 133.532 7.26726 132.9 7.66243C132.283 8.0576 131.793 8.59502 131.43 9.27471C131.066 9.9544 130.885 10.7368 130.885 11.622C130.885 12.4756 131.066 13.2501 131.43 13.9456C131.793 14.6253 132.283 15.1627 132.9 15.5579C133.532 15.953 134.236 16.1506 135.01 16.1506C135.816 16.1506 136.528 15.9451 137.144 15.5342C137.76 15.1074 138.219 14.5462 138.519 13.8507L140.487 14.8466C140.234 15.5104 139.831 16.1032 139.278 16.6248C138.725 17.1306 138.085 17.5337 137.357 17.834C136.63 18.1344 135.848 18.2845 135.01 18.2845ZM149.012 18.2845C147.779 18.2845 146.68 17.9921 145.716 17.4072C144.752 16.8224 143.993 16.0242 143.44 15.0125C142.887 13.9851 142.61 12.8391 142.61 11.5746C142.61 10.2942 142.879 9.15616 143.416 8.16034C143.969 7.16452 144.712 6.38209 145.645 5.81305C146.593 5.2282 147.652 4.93578 148.822 4.93578C149.771 4.93578 150.608 5.10965 151.335 5.4574C152.078 5.78934 152.703 6.24773 153.208 6.83258C153.73 7.40162 154.125 8.0576 154.394 8.80051C154.679 9.52762 154.821 10.2863 154.821 11.0767C154.821 11.2505 154.805 11.4481 154.773 11.6694C154.758 11.8749 154.734 12.0725 154.702 12.2622H144.222V10.3654H153.422L152.379 11.2189C152.521 10.397 152.442 9.66198 152.142 9.0139C151.841 8.36583 151.399 7.85211 150.814 7.47275C150.229 7.09339 149.565 6.90371 148.822 6.90371C148.079 6.90371 147.4 7.09339 146.783 7.47275C146.167 7.85211 145.684 8.39744 145.337 9.10874C145.005 9.80424 144.87 10.6341 144.934 11.5983C144.87 12.5309 145.013 13.3528 145.36 14.0641C145.724 14.7596 146.23 15.305 146.878 15.7001C147.542 16.0795 148.261 16.2692 149.036 16.2692C149.889 16.2692 150.608 16.0716 151.193 15.6764C151.778 15.2813 152.252 14.7754 152.616 14.159L154.465 15.1074C154.212 15.6922 153.817 16.2297 153.28 16.7197C152.758 17.1939 152.134 17.5732 151.407 17.8577C150.695 18.1423 149.897 18.2845 149.012 18.2845ZM48.0236 41V23.336H53.8088C55.595 23.336 57.152 23.6996 58.4797 24.4267C59.8075 25.1538 60.8349 26.1812 61.562 27.509C62.2891 28.821 62.6527 30.37 62.6527 32.1562C62.6527 33.9265 62.2891 35.4756 61.562 36.8033C60.8349 38.1311 59.8075 39.1664 58.4797 39.9093C57.152 40.6364 55.595 41 53.8088 41H48.0236ZM50.3472 38.8661H53.8326C55.1445 38.8661 56.2747 38.5895 57.2231 38.0362C58.1873 37.483 58.9302 36.7085 59.4518 35.7127C59.9734 34.701 60.2343 33.5155 60.2343 32.1562C60.2343 30.781 59.9655 29.5955 59.4281 28.5997C58.9065 27.6038 58.1636 26.8372 57.1994 26.2998C56.251 25.7466 55.1287 25.4699 53.8326 25.4699H50.3472V38.8661ZM70.9799 41.2845C69.747 41.2845 68.6484 40.9921 67.6842 40.4072C66.72 39.8224 65.9613 39.0242 65.408 38.0125C64.8548 36.9851 64.5782 35.8391 64.5782 34.5746C64.5782 33.2942 64.8469 32.1562 65.3843 31.1603C65.9376 30.1645 66.6805 29.3821 67.6131 28.813C68.5615 28.2282 69.6205 27.9358 70.7902 27.9358C71.7386 27.9358 72.5764 28.1097 73.3035 28.4574C74.0464 28.7893 74.6708 29.2477 75.1766 29.8326C75.6982 30.4016 76.0934 31.0576 76.3621 31.8005C76.6466 32.5276 76.7889 33.2863 76.7889 34.0767C76.7889 34.2505 76.773 34.4481 76.7414 34.6694C76.7256 34.8749 76.7019 35.0725 76.6703 35.2622H66.1905V33.3654H75.39L74.3467 34.2189C74.489 33.397 74.4099 32.662 74.1096 32.0139C73.8093 31.3658 73.3667 30.8521 72.7819 30.4727C72.197 30.0934 71.5331 29.9037 70.7902 29.9037C70.0473 29.9037 69.3676 30.0934 68.7512 30.4727C68.1347 30.8521 67.6526 31.3974 67.3048 32.1087C66.9729 32.8042 66.8385 33.6341 66.9018 34.5983C66.8385 35.5309 66.9808 36.3528 67.3286 37.0641C67.6921 37.7596 68.1979 38.305 68.846 38.7001C69.5099 39.0795 70.2291 39.2692 71.0036 39.2692C71.8572 39.2692 72.5764 39.0716 73.1612 38.6764C73.7461 38.2813 74.2203 37.7754 74.5838 37.159L76.4332 38.1074C76.1803 38.6922 75.7851 39.2297 75.2477 39.7197C74.7261 40.1939 74.1017 40.5732 73.3746 40.8577C72.6633 41.1423 71.8651 41.2845 70.9799 41.2845ZM84.0028 41.2845C82.7225 41.2845 81.6081 40.9684 80.6597 40.3361C79.7113 39.7039 79.0395 38.8503 78.6443 37.7754L80.3989 36.9219C80.7624 37.6806 81.2604 38.2813 81.8926 38.7238C82.5249 39.1664 83.2283 39.3877 84.0028 39.3877C84.6983 39.3877 85.2753 39.2217 85.7336 38.8898C86.192 38.5579 86.4212 38.1232 86.4212 37.5858C86.4212 37.2064 86.3106 36.9061 86.0893 36.6848C85.8838 36.4477 85.6309 36.2659 85.3306 36.1394C85.0302 35.9972 84.7536 35.8944 84.5007 35.8312L82.5802 35.2859C81.4263 34.9539 80.5807 34.4797 80.0432 33.8633C79.5216 33.2468 79.2608 32.5276 79.2608 31.7057C79.2608 30.947 79.4505 30.291 79.8298 29.7377C80.225 29.1687 80.7545 28.7261 81.4184 28.41C82.0981 28.0938 82.8568 27.9358 83.6946 27.9358C84.8169 27.9358 85.8206 28.2203 86.7058 28.7893C87.6067 29.3584 88.2469 30.1566 88.6263 31.1841L86.8243 32.0139C86.5398 31.35 86.113 30.8284 85.544 30.449C84.9749 30.0539 84.3348 29.8563 83.6235 29.8563C82.9754 29.8563 82.4617 30.0223 82.0823 30.3542C81.7029 30.6703 81.5133 31.0734 81.5133 31.5634C81.5133 31.927 81.6081 32.2273 81.7978 32.4644C81.9875 32.6857 82.2167 32.8596 82.4854 32.986C82.7541 33.0967 83.0149 33.1915 83.2678 33.2705L85.3543 33.887C86.3975 34.1873 87.2037 34.6536 87.7727 35.2859C88.3576 35.9182 88.65 36.6769 88.65 37.562C88.65 38.2733 88.4524 38.9135 88.0572 39.4826C87.6621 40.0516 87.1167 40.4942 86.4212 40.8103C85.7257 41.1265 84.9196 41.2845 84.0028 41.2845ZM91.2994 41V28.2203H93.5044V41H91.2994ZM91.2994 26.1812V23.336H93.5044V26.1812H91.2994ZM102.782 46.2162C101.881 46.2162 101.044 46.0739 100.269 45.7894C99.5103 45.5049 98.8543 45.1097 98.3011 44.6039C97.7636 44.1139 97.3527 43.537 97.0681 42.8731L99.1309 41.9247C99.3522 42.5253 99.7711 43.0312 100.388 43.4421C101.02 43.8689 101.81 44.0823 102.759 44.0823C103.486 44.0823 104.142 43.94 104.726 43.6555C105.327 43.3868 105.801 42.9758 106.149 42.4226C106.497 41.8852 106.671 41.2292 106.671 40.4547V37.5858L107.074 38.0125C106.631 38.8819 105.991 39.5458 105.153 40.0042C104.331 40.4626 103.422 40.6918 102.427 40.6918C101.225 40.6918 100.15 40.4152 99.202 39.8619C98.2536 39.2929 97.5107 38.5263 96.9733 37.562C96.4359 36.582 96.1672 35.4993 96.1672 34.3138C96.1672 33.1125 96.4359 32.0297 96.9733 31.0655C97.5107 30.1013 98.2457 29.3426 99.1783 28.7893C100.127 28.2203 101.202 27.9358 102.403 27.9358C103.399 27.9358 104.3 28.165 105.106 28.6234C105.928 29.066 106.584 29.6824 107.074 30.4727L106.742 31.0655V28.2203H108.899V40.4547C108.899 41.5611 108.639 42.5491 108.117 43.4184C107.595 44.2878 106.868 44.9675 105.936 45.4575C105.019 45.9633 103.968 46.2162 102.782 46.2162ZM102.616 38.5579C103.375 38.5579 104.055 38.3682 104.655 37.9888C105.272 37.6095 105.762 37.1037 106.125 36.4714C106.489 35.8233 106.671 35.1041 106.671 34.3138C106.671 33.5392 106.489 32.8279 106.125 32.1799C105.762 31.5318 105.272 31.0181 104.655 30.6387C104.055 30.2594 103.375 30.0697 102.616 30.0697C101.842 30.0697 101.138 30.2594 100.506 30.6387C99.8738 31.0181 99.3759 31.5318 99.0124 32.1799C98.6646 32.8121 98.4907 33.5234 98.4907 34.3138C98.4907 35.1041 98.6646 35.8233 99.0124 36.4714C99.3759 37.1037 99.8659 37.6095 100.482 37.9888C101.115 38.3682 101.826 38.5579 102.616 38.5579ZM112.081 41V28.2203H114.238V30.7099L113.883 30.4965C114.199 29.6903 114.705 29.066 115.4 28.6234C116.112 28.165 116.941 27.9358 117.89 27.9358C118.807 27.9358 119.621 28.1413 120.332 28.5522C121.059 28.9632 121.628 29.5323 122.039 30.2594C122.466 30.9865 122.679 31.8084 122.679 32.7252V41H120.45V33.4365C120.45 32.7252 120.324 32.1245 120.071 31.6345C119.818 31.1445 119.455 30.7652 118.98 30.4965C118.522 30.2119 117.993 30.0697 117.392 30.0697C116.791 30.0697 116.254 30.2119 115.78 30.4965C115.321 30.7652 114.958 31.1524 114.689 31.6583C114.42 32.1483 114.286 32.741 114.286 33.4365V41H112.081Z" fill="#D9D9D9"/>
<path fill-rule="evenodd" clip-rule="evenodd" d="M3.41151 3.41151H37.5267V37.5267H3.41151V3.41151ZM0 40.9382V0H40.9382V40.9382H0ZM18.8846 22.0536C22.0835 25.2525 23.8806 29.5912 23.8806 34.1151H6.82303L6.823 25.3305L6.82306 17.0576C11.347 17.0576 15.6857 18.8547 18.8846 22.0536Z" fill="#D9D9D9"/>
</svg>
