<svg width="133" height="41" viewBox="0 0 133 41" fill="none" xmlns="http://www.w3.org/2000/svg">
<g clip-path="url(#clip0_568_6648)">
<path d="M105.634 13.3205C105.634 11.5737 105.634 9.86267 105.634 8.15159C106.559 8.15159 107.449 8.11595 108.357 8.16942C108.909 8.20506 109.354 8.54372 109.514 9.11407C109.692 9.72008 109.425 10.1835 108.945 10.5756C109.39 10.843 109.675 11.2173 109.71 11.7342C109.764 12.5719 109.158 13.267 108.233 13.3205C107.378 13.3561 106.524 13.3205 105.634 13.3205ZM107.004 12.1441C107.307 12.1441 107.592 12.1619 107.877 12.1441C108.144 12.1263 108.286 11.948 108.286 11.6985C108.286 11.4312 108.144 11.2529 107.894 11.2351C107.61 11.2173 107.307 11.2351 107.004 11.2351C107.004 11.5381 107.004 11.8233 107.004 12.1441ZM107.004 10.13C107.289 10.13 107.556 10.1478 107.805 10.13C108.037 10.1122 108.197 9.96961 108.197 9.72008C108.197 9.45272 108.09 9.27449 107.823 9.25666C107.556 9.23884 107.289 9.25666 107.004 9.25666C107.004 9.52402 107.004 9.79137 107.004 10.13Z" fill="#11151E"/>
<path d="M130.788 31.7858C129.791 32.4809 128.67 32.1423 128.118 31.6076C127.441 30.9481 127.299 29.7539 127.797 28.8806C128.314 27.9894 129.204 27.7398 130.61 28.1141C130.61 27.6151 130.61 27.116 130.61 26.5991C131.055 26.5991 131.482 26.5991 131.945 26.5991C131.945 28.3993 131.945 30.1995 131.945 32.071C131.571 31.9819 131.126 32.2492 130.788 31.7858ZM130.699 30.0569C130.699 29.54 130.325 29.1301 129.827 29.1123C129.311 29.0944 128.883 29.5044 128.883 30.0391C128.883 30.556 129.257 30.9659 129.756 30.9838C130.29 30.9838 130.699 30.5916 130.699 30.0569Z" fill="#11151E"/>
<path d="M131.678 18.7745C131.678 18.2398 131.678 17.7408 131.678 17.2239C132.123 17.2239 132.551 17.2239 132.996 17.2239C132.996 19.0419 132.996 20.8421 132.996 22.6958C132.604 22.6066 132.159 22.9096 131.856 22.4462C130.984 23.0344 129.827 22.9631 129.079 22.161C128.42 21.4481 128.367 20.2539 128.919 19.4162C129.471 18.5785 130.45 18.3468 131.678 18.7745ZM129.934 20.6639C129.934 21.1986 130.343 21.6085 130.859 21.6085C131.376 21.6085 131.749 21.2164 131.749 20.6817C131.749 20.147 131.358 19.737 130.842 19.737C130.325 19.7548 129.934 20.147 129.934 20.6639Z" fill="#11151E"/>
<path d="M113.947 18.6676C114.339 18.7567 114.766 18.4537 115.033 18.9528C116.137 18.3646 117.116 18.4359 117.81 19.1667C118.469 19.844 118.576 21.0203 118.077 21.8759C117.561 22.7492 116.671 22.9988 115.3 22.6423C115.3 23.1413 115.3 23.6226 115.3 24.1395C114.837 24.1395 114.41 24.1395 113.965 24.1395C113.947 22.3036 113.947 20.5034 113.947 18.6676ZM116.066 19.7548C115.549 19.7548 115.14 20.1826 115.158 20.7173C115.176 21.2342 115.585 21.6263 116.083 21.6263C116.582 21.6263 116.991 21.2164 116.991 20.6995C116.991 20.1648 116.6 19.737 116.066 19.7548Z" fill="#11151E"/>
<path d="M123.169 22.7136C122.742 22.5888 122.279 22.9097 121.976 22.4463C120.819 23.1592 119.644 22.6958 119.145 22.072C118.54 21.3055 118.522 20.0757 119.145 19.3093C119.786 18.4894 120.837 18.3468 122.012 18.9172C122.332 18.4537 122.777 18.7389 123.187 18.6498C123.169 20.0222 123.169 21.3412 123.169 22.7136ZM121.869 20.6817C121.869 20.1648 121.495 19.7727 120.979 19.7549C120.463 19.7371 120.053 20.147 120.036 20.6817C120.036 21.1986 120.463 21.6264 120.961 21.6085C121.495 21.5907 121.869 21.2164 121.869 20.6817Z" fill="#11151E"/>
<path d="M108.909 18.7033C108.286 18.7033 107.681 18.7033 107.058 18.7033C107.058 18.9706 107.058 19.1845 107.058 19.4519C107.61 19.4519 108.144 19.4519 108.696 19.4519C108.696 19.8618 108.696 20.2183 108.696 20.6461C108.144 20.6461 107.592 20.6461 107.04 20.6461C107.04 20.9312 107.04 21.163 107.04 21.4481C107.681 21.4481 108.322 21.4481 108.98 21.4481C108.98 21.8759 108.98 22.268 108.98 22.678C107.877 22.678 106.755 22.678 105.634 22.678C105.634 20.9669 105.634 19.2558 105.634 17.5269C106.719 17.5269 107.805 17.5269 108.909 17.5269C108.909 17.8834 108.909 18.2577 108.909 18.7033Z" fill="#11151E"/>
<path d="M108.731 28.8271C108.731 29.2549 108.731 29.6114 108.731 30.0213C108.179 30.0213 107.627 30.0213 107.058 30.0213C107.058 30.3065 107.058 30.5382 107.058 30.8056C107.699 30.8056 108.322 30.8056 108.98 30.8056C108.98 31.2333 108.98 31.6254 108.98 32.0354C107.877 32.0354 106.773 32.0354 105.634 32.0354C105.634 30.3243 105.634 28.6132 105.634 26.8665C106.719 26.8665 107.805 26.8665 108.909 26.8665C108.909 27.2408 108.909 27.6329 108.909 28.0607C108.322 28.0607 107.699 28.0607 107.076 28.0607C107.076 28.3281 107.076 28.5598 107.076 28.8271C107.61 28.8271 108.144 28.8271 108.731 28.8271Z" fill="#11151E"/>
<path d="M124.219 30.3778C124.29 31.0907 125.109 31.269 125.501 30.9125C125.75 30.6986 125.982 30.6986 126.249 30.6986C126.516 30.6986 126.783 30.6986 127.103 30.6986C126.854 31.4294 126.391 31.8571 125.697 32.071C124.807 32.3384 123.81 32.071 123.293 31.4116C122.706 30.663 122.653 29.8431 123.062 29.0054C123.507 28.1142 124.557 27.7042 125.608 27.9894C126.569 28.2389 127.174 29.041 127.174 30.0391C127.174 30.3243 127.085 30.4134 126.8 30.3956C125.964 30.36 125.091 30.3778 124.219 30.3778ZM124.237 29.5757C124.771 29.5757 125.269 29.5757 125.786 29.5757C125.643 29.1658 125.394 28.9697 125.002 28.9697C124.629 28.9697 124.379 29.1479 124.237 29.5757Z" fill="#11151E"/>
<path d="M119.537 30.3956C119.59 31.055 120.374 31.2689 120.765 30.9481C121.068 30.6986 121.371 30.7164 121.709 30.6986C121.923 30.6986 122.136 30.6986 122.403 30.6986C122.332 31.0907 122.118 31.3581 121.869 31.5898C121.032 32.3918 119.501 32.3562 118.7 31.5006C117.917 30.6451 117.953 29.2192 118.825 28.4528C119.555 27.8111 120.409 27.7398 121.3 28.1141C122.118 28.4706 122.492 29.1479 122.528 30.0213C122.546 30.2886 122.457 30.3956 122.172 30.3956C121.424 30.3777 120.659 30.3956 119.911 30.3956C119.786 30.3777 119.662 30.3956 119.537 30.3956ZM121.121 29.5935C120.961 29.1301 120.659 28.934 120.249 28.9697C119.875 29.0053 119.626 29.2192 119.59 29.5935C120.089 29.5935 120.587 29.5935 121.121 29.5935Z" fill="#11151E"/>
<path d="M117.152 9.1676C118.451 9.1676 119.395 10.0588 119.395 11.3064C119.395 12.5541 118.416 13.4809 117.134 13.4631C115.834 13.4453 114.909 12.5363 114.909 11.3064C114.909 10.0588 115.852 9.1676 117.152 9.1676ZM118.006 11.3064C118.006 10.7896 117.632 10.3974 117.152 10.3974C116.671 10.3974 116.297 10.7896 116.279 11.3064C116.279 11.8412 116.653 12.2333 117.169 12.2155C117.668 12.2155 118.006 11.8412 118.006 11.3064Z" fill="#11151E"/>
<path d="M112.309 9.1676C113.609 9.1676 114.552 10.0588 114.57 11.2886C114.57 12.5363 113.627 13.4631 112.327 13.4631C111.028 13.4631 110.084 12.5541 110.084 11.3064C110.066 10.0766 111.01 9.18543 112.309 9.1676ZM113.182 11.3064C113.182 10.7896 112.826 10.3974 112.327 10.3974C111.829 10.3974 111.437 10.8074 111.455 11.3243C111.473 11.8412 111.829 12.2155 112.327 12.2155C112.826 12.2155 113.182 11.8412 113.182 11.3064Z" fill="#11151E"/>
<path d="M124.041 22.6601C124.041 21.3412 124.041 20.04 124.041 18.7389C124.646 18.5607 124.949 18.632 125.198 19.0419C125.572 18.7033 126.017 18.525 126.533 18.5428C127.245 18.5785 127.886 19.0241 127.94 19.737C128.011 20.6995 127.958 21.6798 127.958 22.6779C127.548 22.6779 127.103 22.6779 126.622 22.6779C126.622 22.2145 126.622 21.7511 126.622 21.2877C126.622 20.949 126.622 20.6104 126.605 20.2717C126.587 20.0222 126.498 19.7905 126.213 19.7549C125.91 19.7014 125.643 19.7727 125.519 20.0757C125.447 20.2361 125.412 20.4322 125.412 20.6282C125.394 21.3055 125.412 21.9828 125.412 22.6779C124.949 22.6601 124.522 22.6601 124.041 22.6601Z" fill="#11151E"/>
<path d="M117.775 29.7004C117.383 29.7004 117.027 29.7183 116.653 29.6826C116.546 29.6826 116.44 29.5757 116.368 29.4866C116.03 29.0766 115.46 29.0053 115.104 29.3618C114.73 29.7183 114.748 30.4134 115.14 30.752C115.514 31.0729 116.048 30.9838 116.368 30.5738C116.457 30.4669 116.618 30.3777 116.76 30.3777C117.098 30.3421 117.436 30.3599 117.775 30.3599C117.775 31.3402 116.831 32.1601 115.71 32.1779C114.446 32.1958 113.484 31.3046 113.467 30.0747C113.449 28.8271 114.321 27.9359 115.621 27.9003C116.76 27.8646 117.721 28.6667 117.775 29.7004Z" fill="#11151E"/>
<path d="M109.319 18.6676C109.835 18.6676 110.244 18.6498 110.654 18.6854C110.761 18.6854 110.885 18.7924 110.956 18.8993C111.117 19.131 111.241 19.3984 111.419 19.6836C111.597 19.3984 111.74 19.131 111.918 18.8815C111.989 18.7924 112.131 18.6854 112.238 18.6854C112.63 18.6676 113.039 18.6676 113.538 18.6676C113.253 19.0954 113.057 19.5053 112.772 19.8261C112.345 20.3252 112.309 20.753 112.754 21.2877C113.093 21.6798 113.324 22.161 113.645 22.6779C113.128 22.6779 112.648 22.6779 112.185 22.6601C112.114 22.6601 112.042 22.5353 111.989 22.4641C111.811 22.161 111.633 21.8402 111.437 21.4837C111.241 21.8402 111.045 22.1254 110.885 22.4462C110.796 22.6423 110.672 22.6958 110.476 22.6779C110.084 22.6601 109.71 22.6779 109.23 22.6779C109.586 22.1076 109.888 21.5729 110.244 21.0916C110.511 20.7173 110.529 20.45 110.244 20.0757C109.906 19.6657 109.657 19.2023 109.319 18.6676Z" fill="#11151E"/>
<path d="M109.212 32.0532C109.603 31.4472 109.942 30.8768 110.316 30.3421C110.494 30.0748 110.547 29.8787 110.333 29.5757C109.995 29.1123 109.692 28.5954 109.336 28.025C109.853 28.025 110.298 28.0072 110.743 28.0429C110.832 28.0429 110.921 28.1676 110.974 28.2389C111.134 28.4884 111.259 28.738 111.437 29.0232C111.615 28.738 111.758 28.4706 111.936 28.2211C111.989 28.132 112.096 28.025 112.167 28.025C112.594 28.0072 113.039 28.0072 113.538 28.0072C113.146 28.5954 112.826 29.1301 112.47 29.6292C112.327 29.8252 112.345 29.9678 112.47 30.1639C112.861 30.7521 113.235 31.3581 113.645 32.0175C113.128 32.0175 112.683 32.0354 112.238 31.9997C112.149 31.9997 112.06 31.8928 112.007 31.8036C111.811 31.5006 111.651 31.1798 111.437 30.8233C111.223 31.1798 111.063 31.5006 110.867 31.8036C110.796 31.8928 110.672 31.9997 110.565 31.9997C110.12 32.071 109.71 32.0532 109.212 32.0532Z" fill="#11151E"/>
<path d="M119.804 12.0194C120.214 12.0194 120.57 12.0015 120.908 12.0372C120.997 12.0372 121.086 12.1798 121.175 12.2154C121.335 12.3045 121.513 12.3937 121.691 12.4115C121.78 12.4115 121.94 12.2689 121.958 12.1619C121.976 12.0728 121.851 11.9124 121.745 11.8768C121.46 11.7876 121.157 11.7342 120.872 11.6629C120.196 11.4846 119.875 11.146 119.84 10.54C119.822 9.95181 120.142 9.47057 120.765 9.27451C121.335 9.09627 121.905 9.09627 122.457 9.3458C122.937 9.55968 123.204 9.91616 123.24 10.5043C122.848 10.5043 122.457 10.5043 122.083 10.5043C122.029 10.5043 121.976 10.3796 121.905 10.3439C121.745 10.2726 121.584 10.1835 121.424 10.1657C121.353 10.1657 121.193 10.3083 121.175 10.3974C121.157 10.4865 121.264 10.6291 121.353 10.6826C121.513 10.7539 121.709 10.7717 121.905 10.8252C122.047 10.8608 122.207 10.8786 122.35 10.9143C122.973 11.0747 123.276 11.3777 123.329 11.9124C123.382 12.5006 123.115 12.9997 122.563 13.2492C121.905 13.5344 121.246 13.5522 120.587 13.267C120.107 13.0353 119.858 12.6254 119.804 12.0194Z" fill="#11151E"/>
<path d="M125.59 10.3618C125.59 10.8608 125.572 11.2708 125.59 11.6985C125.608 11.9659 125.768 12.1085 126.035 12.1085C126.213 12.1085 126.373 12.1085 126.569 12.1085C126.569 12.5184 126.569 12.8927 126.569 13.3383C126.106 13.3205 125.643 13.3383 125.198 13.2492C124.575 13.1244 124.219 12.6254 124.201 11.9124C124.184 11.4134 124.201 10.9143 124.201 10.3618C123.97 10.3618 123.738 10.3618 123.418 10.3618C123.489 10.1657 123.507 9.98746 123.596 9.89834C124.112 9.32798 124.629 8.77545 125.163 8.22291C125.252 8.1338 125.376 8.11597 125.554 8.04468C125.554 8.50809 125.554 8.86457 125.554 9.29234C125.893 9.29234 126.195 9.29234 126.533 9.29234C126.533 9.64881 126.533 9.96964 126.533 10.3439C126.231 10.3618 125.946 10.3618 125.59 10.3618Z" fill="#11151E"/>
<path d="M43.9665 8.20513C44.1268 8.20513 44.2336 8.20513 44.3582 8.20513C47.883 8.20513 51.4257 8.1873 54.9505 8.20513C56.7486 8.22295 58.4042 8.70419 59.8283 9.84491C62.6767 12.1263 62.7301 16.1901 59.953 18.7033C59.6681 18.9528 59.3655 19.1667 59.0985 19.3806C59.6147 19.7727 60.2022 20.1114 60.6651 20.557C63.6024 23.3374 63.2286 28.0786 59.9174 30.4491C58.422 31.5185 56.7486 31.9819 54.9149 31.9819C51.3367 31.9819 47.7406 31.9819 44.1624 31.9819C44.1089 31.9819 44.0377 31.9641 43.9487 31.9641C43.9665 24.0682 43.9665 16.1545 43.9665 8.20513ZM50.2863 26.5457C50.3397 26.5635 50.3753 26.5814 50.411 26.5814C51.6215 26.5814 52.8143 26.617 54.0248 26.5814C55.2888 26.5279 56.1433 25.6724 56.1611 24.496C56.1967 23.1949 55.271 22.3037 53.8468 22.2859C52.7609 22.268 51.6571 22.2859 50.5712 22.2859C50.4822 22.2859 50.3753 22.3037 50.2863 22.3215C50.2863 23.7474 50.2863 25.1555 50.2863 26.5457ZM50.2685 17.42C51.5147 17.42 52.7074 17.4735 53.918 17.4022C55.0395 17.3487 55.7694 16.4931 55.7694 15.3703C55.7694 14.2474 55.0573 13.4096 53.918 13.3384C52.9567 13.2671 51.9775 13.3027 51.0162 13.3027C50.767 13.3027 50.5178 13.3027 50.2685 13.3027C50.2685 14.693 50.2685 16.0297 50.2685 17.42Z" fill="#11151E"/>
<path d="M80.0339 17.3487C80.0339 19.1667 80.0339 20.9313 80.0339 22.7315C77.4348 22.7315 74.8534 22.7315 72.2365 22.7315C72.2365 23.9256 72.2365 25.0842 72.2365 26.2784C75.2095 26.2784 78.1825 26.2784 81.1733 26.2784C81.1733 28.2033 81.1733 30.057 81.1733 31.9641C76.0284 31.9641 70.8835 31.9641 65.7209 31.9641C65.7209 24.0504 65.7209 16.1545 65.7209 8.24078C70.7767 8.24078 75.8148 8.24078 80.8884 8.24078C80.8884 10.1123 80.8884 11.9659 80.8884 13.8552C78.0223 13.8552 75.1383 13.8552 72.2543 13.8552C72.2543 15.0316 72.2543 16.1723 72.2543 17.3487C74.8356 17.3487 77.417 17.3487 80.0339 17.3487Z" fill="#11151E"/>
<path d="M100.061 26.2784C100.061 28.2212 100.061 30.0748 100.061 31.9641C94.8988 31.9641 89.754 31.9641 84.5913 31.9641C84.5913 24.0504 84.5913 16.1545 84.5913 8.22296C89.6472 8.22296 94.6852 8.22296 99.741 8.22296C99.741 10.0766 99.741 11.9481 99.741 13.8553C96.8749 13.8553 94.0087 13.8553 91.1069 13.8553C91.1069 15.0316 91.1069 16.1723 91.1069 17.3487C93.6883 17.3487 96.2696 17.3487 98.8865 17.3487C98.8865 19.1489 98.8865 20.9134 98.8865 22.7315C96.2874 22.7315 93.7061 22.7315 91.1069 22.7315C91.1069 23.9256 91.1069 25.0842 91.1069 26.2784C94.0799 26.2784 97.0529 26.2784 100.061 26.2784Z" fill="#11151E"/>
<path d="M35.4748 11.5203C35.4748 10.9856 35.368 10.5044 35.1188 10.0766C34.8696 9.64885 34.4957 9.29237 34.0329 9.02502C29.066 6.1554 24.0992 3.28579 19.1324 0.416171C18.6873 0.148815 18.2067 0.00622559 17.726 0.00622559C17.2275 0.00622559 16.7647 0.148815 16.3018 0.416171C11.3706 3.28579 6.42155 6.1554 1.45472 9.00719C0.991861 9.27455 0.618013 9.63102 0.368781 10.0588C0.11955 10.4866 -0.00506619 10.9856 0.0127361 11.5203V11.5382C0.0127361 12.7858 0.0127361 14.0513 0.0127361 15.299C0.0127361 16.9031 0.0127361 18.4894 0.0127361 20.0935V20.6282C0.0127361 22.0541 0.0127361 23.4622 0.0127361 24.8881C0.0127361 26.1001 0.0127363 27.33 -0.00506592 28.542V28.5776C-0.00506592 29.148 0.11955 29.6827 0.386584 30.1283C0.653618 30.5739 1.06307 30.9303 1.54373 31.2155C6.47496 34.0495 11.3884 36.9013 16.3018 39.7353C16.7469 40.0026 17.2275 40.1452 17.726 40.1452C18.2245 40.1452 18.7051 40.0026 19.168 39.7353C24.117 36.8656 29.066 33.996 34.0329 31.1442C34.4957 30.8769 34.8696 30.5382 35.1188 30.1105C35.368 29.7005 35.4748 29.2014 35.4748 28.6846V28.6667V28.6489V28.6311C35.4748 25.7793 35.4748 22.9097 35.4748 20.0579C35.4748 17.2417 35.4748 14.39 35.4748 11.5203ZM16.8003 27.3656C16.8003 29.0589 16.8003 30.7343 16.8003 32.4275C16.8003 32.5879 16.8003 32.7484 16.8003 32.9088C16.7825 33.4078 16.4264 33.6039 15.9992 33.3722C14.8776 32.7484 13.7739 32.0889 12.6523 31.4472C10.6941 30.3065 8.73585 29.1658 6.75979 28.0429C6.0121 27.6151 5.65605 27.027 5.65605 26.1536C5.67386 22.6601 5.67386 19.1667 5.67386 15.6554C5.67386 15.5663 5.67386 15.4772 5.67386 15.3881C5.72726 14.9781 6.06551 14.7821 6.43935 14.9781C7.5965 15.6376 8.73585 16.2971 9.89299 16.9744C11.8512 18.1151 13.8273 19.2558 15.7855 20.3787C16.462 20.7708 16.8181 21.3055 16.8003 22.1076C16.7825 23.8543 16.8003 25.6189 16.8003 27.3656ZM29.8315 19.9153C29.8315 21.7155 29.8315 24.6742 29.8315 26.4744C29.8315 27.0983 29.5823 27.5617 29.0304 27.8825C27.0722 29.0054 25.1139 30.1461 23.1557 31.269C22.7106 31.5185 22.4436 31.3581 22.4436 30.8412C22.4436 27.3121 22.4436 22.6067 22.4436 19.0776C22.4436 18.2042 22.0697 17.5626 21.322 17.1348C18.2957 15.3881 14.1121 12.9819 11.0679 11.2352C11.0323 11.2173 10.9967 11.1995 10.9611 11.1639C10.5339 10.9143 10.5339 10.6113 10.9611 10.3618C12.0827 9.70232 13.2398 9.04284 14.3792 8.38336C15.1981 7.91995 16.017 7.45653 16.8359 6.97529C17.3699 6.65447 17.8862 6.65447 18.4203 6.97529C21.5713 8.79331 25.8794 11.2708 29.0482 13.0888C29.6001 13.4096 29.8493 13.8552 29.8493 14.4969C29.8137 16.2971 29.8315 18.0973 29.8315 19.9153Z" fill="#FFB342"/>
</g>
<defs>
<clipPath id="clip0_568_6648">
<rect width="133" height="40.151" fill="white"/>
</clipPath>
</defs>
</svg>
